<svg width="95" height="96" viewBox="0 0 95 96" fill="none" xmlns="http://www.w3.org/2000/svg">
<path d="M50.3275 45.686C50.3275 44.5291 49.1153 44.6096 47.3549 44.6096C45.5944 44.6096 44.2012 44.4486 44.2012 45.6155C44.2012 46.7825 45.5039 47.723 47.2643 47.723C49.0248 47.723 50.3275 46.8428 50.3275 45.686Z" fill="#E9A74B"/>
<path d="M17.3563 33.0461C15.9278 33.4737 13.5186 34.8971 12.0096 35.2241C11.3004 35.3699 11.4312 36.5218 12.1454 36.4564C13.8203 36.2954 16.1341 34.7311 17.6782 34.2734C17.841 34.2307 17.9801 34.1251 18.065 33.9799C18.1499 33.8346 18.1736 33.6616 18.1309 33.4988C18.0882 33.3361 17.9826 33.197 17.8374 33.1121C17.6921 33.0272 17.5191 33.0035 17.3563 33.0461Z" fill="#E9A74B"/>
<path d="M14.3788 25.5516C13.429 25.5982 12.4788 25.4668 11.5772 25.1643C11.503 25.1307 11.4228 25.1121 11.3413 25.1097C11.2598 25.1072 11.1787 25.1208 11.1025 25.1498C11.0263 25.1788 10.9566 25.2225 10.8974 25.2785C10.8381 25.3345 10.7906 25.4017 10.7574 25.4761C10.4204 26.9298 13.4634 26.7034 14.3788 26.809C14.5456 26.809 14.7055 26.7428 14.8234 26.6249C14.9413 26.507 15.0076 26.3471 15.0076 26.1803C15.0076 26.0136 14.9413 25.8536 14.8234 25.7357C14.7055 25.6178 14.5456 25.5516 14.3788 25.5516Z" fill="#E9A74B"/>
<path d="M16.8737 12.3183C16.6172 11.5739 17.608 8.85273 16.8234 8.47046C16.0387 8.08819 14.6807 10.5176 14.1928 10.6031C13.7049 10.6886 12.4324 8.87788 11.874 9.4211C11.3157 9.96432 12.0602 12.5899 11.859 13.0929C11.6578 13.5958 9.8923 15.2507 10.4204 15.9146C10.9486 16.5785 12.0099 15.5474 12.5128 15.7687C13.2271 16.0655 12.4776 18.7212 13.5188 18.7112C14.56 18.7011 14.7913 16.1963 15.2792 15.8391C15.7671 15.482 18.9309 15.8391 19.2629 15.135C19.7658 14.0988 17.1302 13.0627 16.8737 12.3183Z" fill="#E9A74B"/>
<path d="M45.0002 56.2589C45.4679 56.8121 49.2101 56.8775 49.527 56.1331C50.03 54.7952 48.521 53.2108 48.7323 49.4082C48.7776 48.5532 45.9055 48.6638 45.9206 49.5189C45.976 53.7842 44.0043 55.0718 45.0002 56.2589Z" fill="#E9A74B"/>
<path d="M47.2843 7.92191C47.3746 7.92326 47.4641 7.90466 47.5464 7.86744C47.6287 7.83023 47.7017 7.77531 47.7603 7.70661C47.8189 7.63791 47.8617 7.55712 47.8855 7.47001C47.9092 7.38289 47.9135 7.2916 47.898 7.20264C47.6144 5.03511 47.547 2.84475 47.6968 0.663875C47.6959 0.505616 47.6349 0.353616 47.5261 0.238673C47.4173 0.12373 47.2689 0.0544423 47.1109 0.0448489C46.9529 0.0352556 46.7972 0.0860743 46.6753 0.187008C46.5534 0.287941 46.4744 0.43144 46.4544 0.588428C46.555 0.945545 45.8257 7.84143 47.2843 7.92191Z" fill="#E9A74B"/>
<path d="M58.2489 7.59521C58.3301 7.6095 58.4134 7.60658 58.4934 7.58664C58.5734 7.56669 58.6483 7.53017 58.7132 7.47943C58.7782 7.42869 58.8318 7.36487 58.8705 7.2921C58.9092 7.21933 58.9322 7.13924 58.938 7.05702C59.0545 6.27767 59.3119 5.52604 59.6975 4.83886C59.8987 4.15984 61.2618 2.32395 60.0647 1.82097C59.9833 1.80428 59.8994 1.80414 59.818 1.82057C59.7366 1.837 59.6593 1.86966 59.5908 1.9166C59.5222 1.96354 59.4639 2.0238 59.4191 2.09378C59.3744 2.16377 59.3442 2.24205 59.3303 2.32395C59.3153 3.58141 56.4935 7.1224 58.2489 7.59521Z" fill="#E9A74B"/>
<path d="M24.7203 9.3104C23.5154 8.25938 22.3859 7.12486 21.3403 5.91527C21.228 5.80492 21.0782 5.74109 20.9209 5.73658C20.7635 5.73208 20.6103 5.78722 20.4919 5.89096C20.3736 5.9947 20.2988 6.13936 20.2826 6.29592C20.2664 6.45249 20.31 6.60938 20.4047 6.73513C21.5111 8.00497 22.7026 9.19812 23.9708 10.3063C24.1042 10.4057 24.2717 10.448 24.4363 10.424C24.6009 10.3999 24.7492 10.3114 24.8486 10.178C24.9479 10.0446 24.9903 9.87723 24.9662 9.71263C24.9421 9.54803 24.8537 9.39972 24.7203 9.30034V9.3104Z" fill="#E9A74B"/>
<path d="M37.1589 27.081C43.9491 61.5051 64.6619 32.1108 59.949 15.4571C58.8022 14.0337 56.4935 12.8064 48.7727 12.6907C40.725 12.5649 37.4305 12.3436 36.837 14.4059C36.339 16.111 35.6499 18.7114 37.1589 27.081Z" fill="#E9A74B"/>
<path d="M55.367 62.0784C54.7936 61.3591 55.4575 60.6197 54.9847 60.3531C53.1992 59.3472 43.9996 59.3773 43.2653 60.323C42.7623 60.9768 43.4111 61.5301 42.7975 62.0281C41.8468 62.7926 38.1248 61.0221 38.0745 62.9183C38.0393 64.2965 41.5954 64.5681 43.8286 67.3043C45.6293 69.5175 48.4208 68.0186 51.5041 68.3455C54.019 68.6121 55.1004 68.763 56.2623 68.3153C57.721 67.747 57.5147 63.8237 57.0118 63.1749C56.5088 62.526 55.9454 62.7926 55.367 62.0784Z" fill="#E9A74B"/>
<path d="M83.5744 32.4675C82.166 32.382 81.4216 32.0098 80.315 31.7483C79.7467 31.6125 78.3936 30.7121 78.0164 31.6779C77.971 31.8366 77.9899 32.0068 78.069 32.1517C78.148 32.2966 78.2809 32.4047 78.4389 32.4524C80.3201 32.9957 81.2908 33.5741 83.4989 33.7099C83.6572 33.709 83.8092 33.648 83.9241 33.5392C84.039 33.4304 84.1083 33.282 84.1179 33.124C84.1275 32.9661 84.0767 32.8103 83.9758 32.6884C83.8748 32.5665 83.7313 32.4876 83.5744 32.4675Z" fill="#E9A74B"/>
<path d="M79.5707 38.559C79.3897 38.2572 78.766 36.5018 77.921 36.5068C77.0759 36.5119 77.2369 38.1466 76.7641 38.3025C76.2913 38.4584 74.8226 38.0158 74.6264 38.8055C74.38 39.7511 76.2008 40.1333 76.3014 40.757C76.3718 41.1645 75.054 43.0003 75.9543 43.272C76.4824 43.4379 77.5387 42.266 78.1071 42.266C78.6754 42.266 79.6462 43.6341 80.3755 43.272C81.0143 42.95 79.9932 41.0035 80.1492 40.6917C80.3051 40.3798 82.0404 39.9623 81.804 39.2531C81.5676 38.5439 79.7518 38.8558 79.5707 38.559Z" fill="#E9A74B"/>
<path d="M35.65 7.34378C35.7676 7.34571 35.8833 7.31437 35.9838 7.25338C36.0843 7.1924 36.1655 7.10425 36.2181 6.99909C36.2707 6.89394 36.2925 6.77606 36.281 6.65906C36.2694 6.54206 36.2251 6.4307 36.153 6.33781C35.1471 5.13569 34.8101 4.12972 34.2015 2.61072C34.1401 2.45797 34.0206 2.33587 33.8692 2.27125C33.7178 2.20664 33.5469 2.20481 33.3942 2.26617C33.2414 2.32754 33.1193 2.44706 33.0547 2.59846C32.9901 2.74986 32.9883 2.92072 33.0496 3.07346C33.6884 4.67294 34.0556 5.73424 35.1823 7.09732C35.2372 7.17041 35.3076 7.23042 35.3885 7.27304C35.4694 7.31565 35.5587 7.33981 35.65 7.34378Z" fill="#E9A74B"/>
<path d="M83.8915 12.8209C83.7004 12.3179 85.0082 10.5021 84.5203 9.86839C84.0324 9.23463 82.5838 10.7084 82.1261 10.6279C81.6684 10.5474 81.2861 7.96209 80.2248 8.45501C79.586 8.75177 79.7973 11.1761 79.5558 11.8753C79.3144 12.5744 76.7442 13.2937 76.8951 14.2494C77.051 15.2855 79.2188 14.5361 79.6363 14.9887C80.0538 15.4414 79.3848 18.907 80.2902 18.746C81.2962 18.565 82.0657 15.6527 82.5486 15.4414C83.0314 15.2302 84.5605 16.1054 85.1238 15.7332C85.8683 15.2151 84.0776 13.3088 83.8915 12.8209Z" fill="#E9A74B"/>
<path d="M83.977 23.736C83.2729 23.8265 80.3908 22.9966 80.4562 24.4452C80.4683 24.5254 80.4965 24.6024 80.539 24.6715C80.5816 24.7407 80.6376 24.8005 80.7038 24.8475C80.77 24.8944 80.845 24.9275 80.9243 24.9448C81.0036 24.9621 81.0856 24.9633 81.1654 24.9481C81.9859 24.8137 82.8237 24.8256 83.6401 24.9834C84.7315 25.1242 85.149 23.58 83.977 23.736Z" fill="#E9A74B"/>
<path d="M73.5896 5.82009C73.4518 5.7294 73.2839 5.6965 73.122 5.72849C72.9602 5.76048 72.8174 5.8548 72.7245 5.99111C72.0743 7.05217 71.2632 8.00579 70.3202 8.81787C70.2193 8.85909 70.13 8.92435 70.0601 9.00795C69.9902 9.09155 69.9418 9.19098 69.919 9.29757C69.8963 9.40416 69.8999 9.51469 69.9297 9.61955C69.9594 9.72441 70.0143 9.82042 70.0896 9.89922C70.1648 9.97803 70.2582 10.0373 70.3616 10.0717C70.465 10.1062 70.5753 10.1149 70.6828 10.0971C70.7903 10.0792 70.8918 10.0354 70.9785 9.96935C71.0653 9.90332 71.1345 9.81711 71.1803 9.71821C71.7185 9.11966 74.6509 6.6299 73.5896 5.82009Z" fill="#E9A74B"/>
<path d="M57.3485 47.6473C56.2772 48.3515 58.6714 50.6652 59.1039 51.4499C59.6069 52.3553 60.3212 53.1701 60.9247 54.1408C60.9799 54.2314 61.0575 54.3063 61.15 54.3583C61.2425 54.4103 61.3468 54.4376 61.4529 54.4376C63.2284 54.0151 60.5928 51.4197 60.12 50.7306C59.5667 49.9409 58.2841 47.0287 57.3485 47.6473Z" fill="#E9A74B"/>
<path d="M37.4911 47.2955C36.2487 46.5209 34.5587 51.8827 33.593 52.773C33.5 52.9091 33.4647 53.0766 33.4949 53.2387C33.5251 53.4009 33.6182 53.5445 33.754 53.6381C34.9309 54.1763 35.7961 51.591 36.1733 50.7862C36.5103 50.0719 38.4367 47.8789 37.4911 47.2955Z" fill="#E9A74B"/>
<path d="M67.7953 44.7C66.8849 44.2976 65.6274 41.9537 64.6617 42.7434C63.8318 43.4224 66.7792 45.7613 67.4633 45.8468C68.0518 45.9323 68.3435 44.9465 67.7953 44.7Z" fill="#E9A74B"/>
<path d="M24.3784 67.8121C26.8933 64.0599 27.0844 59.7644 24.5343 56.4497C35.2076 44.3228 26.5965 33.4383 15.4253 40.6863C14.2684 41.4357 12.5683 43.005 12.1056 42.9145C11.2556 42.7535 8.84124 40.6008 6.62309 41.9085C4.40494 43.2163 4.96828 47.7985 5.7982 47.7985C6.14525 47.7985 6.52752 47.718 6.47722 47.381C6.04969 44.3631 6.71865 42.8994 7.79504 42.6731C8.801 42.4618 10.6469 44.182 11.7787 44.509C13.6648 45.0924 17.7591 38.5687 23.0304 39.6652C21.6019 41.2999 19.6855 43.0201 20.1282 43.5885C20.7267 44.3631 22.6431 42.0292 24.4287 39.9419C25.1607 40.1182 25.8402 40.4667 26.4105 40.9583C26.9809 41.4499 27.4257 42.0706 27.7081 42.7686C26.677 44.4436 24.3079 45.9626 24.6349 46.5863C24.9618 47.21 26.6468 46.0833 28.0954 44.3882C28.4676 47.7431 26.7021 52.3404 23.6993 55.5041C20.2438 51.9179 15.4202 51.7569 9.48505 53.3564C7.57372 45.4998 1.4474 49.2571 0.144676 55.3432C0.117623 55.5013 0.152546 55.6638 0.242187 55.7969C0.331828 55.9299 0.469293 56.0233 0.62601 56.0576C0.782727 56.0919 0.946643 56.0646 1.08369 55.9812C1.22074 55.8977 1.32037 55.7647 1.36189 55.6098C2.47348 50.4894 6.82428 47.7532 8.127 53.0949C8.23263 53.5978 8.36843 54.2718 8.95692 54.5032C10.2345 55.0062 17.9553 50.4794 23.7446 57.4356C23.8603 57.5714 15.5561 58.4416 15.8277 59.7543C16.0993 61.0671 21.4359 58.8691 24.4387 58.6226C25.2147 60.3564 25.3257 62.315 24.7506 64.1253C23.9408 64.4472 17.6585 65.1815 17.8346 66.1372C18.0106 67.0929 21.8987 65.6594 24.2627 65.433C20.9732 72.173 13.4435 74.6879 6.15531 76.4131C5.99523 76.4505 5.85655 76.5499 5.76977 76.6895C5.68299 76.8291 5.65522 76.9974 5.69257 77.1575C5.72992 77.3176 5.82933 77.4563 5.96894 77.5431C6.10854 77.6299 6.2769 77.6576 6.43698 77.6203C13.3932 76.0258 20.3998 73.697 24.3784 67.8121Z" fill="#001434"/>
<path d="M51.5797 58.0543C48.6272 57.3853 41.5603 57.6921 40.7203 58.3611C39.8803 59.03 39.9256 61.379 40.0916 62.3246C40.6801 65.6191 42.7423 64.3969 46.5147 64.6131C48.5416 64.7386 50.5762 64.6374 52.5806 64.3114C54.6278 63.1696 54.7082 58.3158 51.5797 58.0543ZM52.47 62.7571C51.7457 63.8939 42.6568 63.2601 41.676 63.1444C41.0774 62.5861 41.2283 59.5431 41.4949 59.3469C41.7313 58.8087 52.983 58.7987 52.4297 59.7342C52.795 60.7064 52.8092 61.7756 52.47 62.7571Z" fill="#001434"/>
<path d="M50.6993 37.6283C50.7818 37.6298 50.8637 37.6142 50.9399 37.5826C51.0161 37.551 51.085 37.5039 51.1421 37.4444C51.1993 37.3849 51.2435 37.3142 51.272 37.2368C51.3006 37.1593 51.3128 37.0769 51.3079 36.9945C51.1117 35.7672 48.793 36.5821 47.8977 36.2149C48.0938 28.5545 47.8977 16.4929 47.8977 16.3672C47.8424 15.7385 47.0124 15.6379 46.6956 16.4628C46.092 18.022 45.4834 21.4926 43.0439 21.3668C42.7069 21.4171 42.4001 21.7541 42.5409 22.076C43.1948 23.756 46.1523 21.4473 46.7157 20.1697C46.7559 24.3646 46.7911 31.1951 46.6604 36.1646C46.0719 36.3708 43.225 35.7622 43.235 37.1102C43.2459 37.19 43.2729 37.2668 43.3144 37.3359C43.356 37.405 43.4111 37.4649 43.4765 37.5119C43.5419 37.559 43.6163 37.5922 43.6949 37.6096C43.7736 37.627 43.855 37.6282 43.9342 37.6132C47.4601 37.1253 47.8826 37.6383 50.6993 37.6283Z" fill="#001434"/>
<path d="M55.4778 71.7807C57.7211 71.6449 59.6425 71.5192 59.7532 69.4569C59.9745 65.4331 59.5017 60.3328 59.1546 59.9003C58.2392 58.8189 56.4536 59.6739 56.4184 58.165C56.3128 53.5778 50.5536 58.9949 50.7448 48.5429C52.299 47.4464 53.0132 45.6508 52.1179 44.0714C53.2817 43.4772 54.3526 42.7164 55.2968 41.813C64.0939 41.9237 77.1061 33.383 76.3868 23.7057C75.9593 17.8811 69.5965 16.2515 65.789 19.3549C66.4177 15.834 66.4328 12.8161 65.286 11.7448C63.6463 9.66744 52.2085 10.3968 46.7511 10.3565C33.1706 10.2509 25.7415 7.59515 28.689 19.4504C24.8915 16.513 18.7652 17.9415 18.061 23.6705C16.8287 33.5641 30.5651 42.4267 39.3824 42.1651C40.2704 42.9174 41.2487 43.556 42.2947 44.0664C41.3541 45.7816 41.4949 47.0139 43.8036 48.7693C44.201 50.6102 42.692 54.8403 40.9366 55.8462C38.2356 55.7305 37.8081 57.5312 37.7326 58.8189C34.2117 58.9496 34.6493 61.6205 34.6695 64.1304C29.3831 64.5579 25.0625 69.0546 23.7497 75.0099C22.5727 75.6939 19.7963 74.7433 18.5439 76.1315C16.4917 78.4 18.7903 81.3877 20.259 83.0978C20.8375 83.8774 19.922 86.0252 19.2128 87.7403C19.1656 87.8907 19.1771 88.0533 19.2449 88.1956C19.3127 88.3378 19.4319 88.4491 19.5784 88.5071C19.725 88.5651 19.888 88.5655 20.0348 88.5081C20.1816 88.4508 20.3012 88.34 20.3697 88.1981C20.3697 88.1981 21.8233 84.6168 21.6372 83.636C21.1342 81.0104 17.4272 79.7681 19.419 77.0117C20.4854 75.548 24.4489 77.5147 24.9518 75.2714C26.4155 69.135 31.1586 64.5176 36.8826 65.4934C36.1533 66.9118 33.3969 70.9357 34.2822 71.4387C35.3736 72.0674 37.3001 67.3293 38.1602 65.8405C40.3625 66.7186 42.233 68.267 43.5069 70.2667C38.2356 72.7816 35.9973 76.041 39.5584 85.7837C38.0495 87.1066 35.2177 87.9616 36.5707 91.4171C37.5767 94.435 42.4808 93.1927 43.6477 95.1593C43.7078 95.3047 43.8206 95.4219 43.9635 95.4876C44.1064 95.5533 44.2688 95.5626 44.4183 95.5137C44.5677 95.4647 44.6931 95.3611 44.7694 95.2235C44.8457 95.086 44.8673 94.9247 44.8297 94.772C43.9092 91.8698 38.7235 93.4039 37.788 90.7482C37.1844 89.038 37.8885 88.4345 39.3673 87.4738C40.1972 86.9356 41.1378 86.3219 40.7254 85.3411C38.0797 78.8023 38.4821 74.19 43.0542 71.8209C43.4415 73.7222 44.6335 77.6153 45.5691 77.4191C46.1727 77.2934 45.0661 74.2302 44.5128 71.2526C46.2062 70.7067 47.9978 70.5351 49.764 70.7496C50.4933 72.329 50.8856 76.3075 51.7759 76.2019C52.8925 76.0762 51.4791 71.8662 51.2125 70.986C56.7454 72.9979 60.7994 77.1727 64.3655 85.331C64.3915 85.4137 64.4345 85.49 64.4916 85.5551C64.5487 85.6202 64.6188 85.6727 64.6973 85.7093C64.7759 85.7458 64.8611 85.7656 64.9477 85.7673C65.0344 85.7691 65.1204 85.7528 65.2003 85.7195C65.2803 85.6862 65.3524 85.6366 65.4122 85.5738C65.4719 85.5111 65.5179 85.4366 65.5472 85.3551C65.5766 85.2736 65.5887 85.1869 65.5826 85.1005C65.5766 85.0141 65.5527 84.9299 65.5123 84.8532C62.8717 78.5861 58.8629 74.19 55.4778 71.7807ZM70.1599 19.1285C77.3274 20.0993 75.6575 28.6349 71.1256 33.1617C67.1319 37.1504 61.7148 40.0828 56.5743 40.5505C59.391 37.4572 62.3486 31.5371 63.9481 26.5425C65.7286 30.3048 68.837 29.8571 70.6075 28.2426C72.5088 26.5073 72.0863 22.75 68.3793 22.8003C67.5645 22.8003 67.7204 24.1382 68.5151 24.0376C69.5211 23.8918 70.6931 24.767 70.6025 25.8283C70.4164 28.0112 67.7607 28.7606 66.1712 27.5233C62.7711 24.7619 66.3322 18.5903 70.1599 19.1285ZM22.9349 33.0712C12.5382 21.9553 26.7374 13.5655 29.534 23.6554C30.54 27.6088 24.5495 30.1438 23.8302 25.8685C23.9006 24.9329 24.4338 24.098 25.5001 24.3595C25.6554 24.3984 25.8196 24.3761 25.9589 24.2973C26.0982 24.2184 26.2018 24.089 26.2484 23.9358C26.2949 23.7827 26.2808 23.6175 26.2089 23.4745C26.137 23.3315 26.0129 23.2215 25.8622 23.1675C24.127 22.6494 22.5727 24.1081 22.5727 25.8886C22.6582 30.2646 29.0411 30.4607 30.4193 26.4419C31.8025 30.853 33.5227 35.9986 37.964 40.8574C32.7028 40.4147 26.828 37.427 22.9349 33.0712ZM32.2049 27.9257C27.9949 10.8243 25.2939 10.8494 44.1507 11.6089C49.4823 11.8252 62.1222 10.8696 64.4259 12.6954C65.7689 13.9478 64.5567 22.4029 61.2772 30.1187C52.3493 53.1754 36.3545 43.503 32.2049 27.9257ZM43.019 45.6759C43.0187 45.467 43.0635 45.2604 43.1503 45.0703C43.2371 44.8802 43.3639 44.7111 43.5219 44.5744C45.9279 45.4296 48.5551 45.4296 50.9611 44.5744C52.7517 49.066 43.1548 49.7149 43.019 45.6759ZM45.0913 49.393C46.5178 49.7628 48.0203 49.7174 49.4219 49.2622C49.3788 51.548 50.0429 53.7912 51.3232 55.6853C47.8325 55.5797 45.9111 55.6551 42.8379 55.7758C44.2226 53.9279 45.0089 51.7006 45.0913 49.393ZM53.5061 70.5534C51.791 69.5475 48.1293 69.0193 44.7392 69.8845C42.4053 66.4089 39.6138 64.3969 35.9118 64.1304C35.8816 61.7764 35.5899 60.1719 37.8181 60.0713C40.0463 59.9707 37.9791 56.8069 40.5795 57.1137C41.8822 57.2697 55.6086 55.5294 55.166 58.2857C54.8139 60.534 57.1075 59.7946 58.1839 60.69C58.5712 60.9012 58.8478 66.5547 58.5209 69.4569C58.3499 70.9055 55.3571 70.4327 53.5061 70.5534Z" fill="#001434"/>
<path d="M93.9967 74.8389C88.5997 71.821 88.9669 71.318 88.8512 69.0798C88.7456 67.264 88.3482 65.7148 86.794 65.0157C85.2398 64.3165 83.2128 64.5529 81.6032 66.2379C80.5369 67.088 80.0943 67.3747 79.4253 66.9974C76.9186 65.544 74.0455 64.8453 71.1513 64.9855C68.7319 61.1528 67.3839 56.1883 68.5156 52.4109C69.1192 53.5024 71.0305 56.7014 71.8906 55.8363C72.4489 55.2629 69.4512 52.5266 69.1343 50.9221C69.6703 49.8071 70.5821 48.9166 71.7096 48.4072C72.3484 50.3537 74.5162 53.7791 75.3562 53.095C76.1962 52.4109 74.0836 50.9473 72.8715 47.9595C76.0352 46.008 80.1748 48.7442 82.4684 51.3195C84.1986 53.261 84.7972 54.5486 86.2608 54.2166C88.5997 53.7137 90.3199 53.5628 90.9587 54.7196C92.7694 58.0041 89.9527 59.2716 89.8069 60.9868C89.7163 62.0581 90.6167 63.9292 92.186 65.8707C92.2753 66.0101 92.4164 66.1083 92.5782 66.1437C92.74 66.1791 92.9092 66.1487 93.0486 66.0594C93.188 65.97 93.2862 65.8289 93.3215 65.6671C93.3569 65.5053 93.3266 65.3361 93.2372 65.1967C92.3469 63.8035 90.5362 61.2986 91.2253 60.4184C92.5984 58.7183 93.2372 55.8463 91.9647 54.0054C89.6208 50.6555 85.9943 54.3022 84.7418 52.245C74.5464 38.2973 60.5987 50.8869 69.7781 65.1263C66.1466 65.6545 63.3701 68.3203 63.3701 72.4447C63.3701 78.4302 69.0287 83.5807 75.492 87.2374C76.7947 87.9718 78.4445 87.6046 77.2273 86.8602C72.9368 84.2447 65.8146 80.0045 64.7332 73.9386C65.8347 74.9445 68.8828 76.6094 69.26 75.87C69.763 74.9395 67.062 74.4617 64.6175 72.1983C64.6876 71.0943 65.0335 70.0255 65.6235 69.0898C66.383 69.97 70.3565 72.7817 70.7589 71.645C71.0456 70.8352 68.5156 69.633 66.4031 68.1241C69.6071 65.1967 74.6671 65.8104 78.7563 68.0487C80.1999 68.8886 81.3366 67.9833 82.3376 67.1835C83.3385 66.3838 84.2741 65.6494 85.7076 65.9965C88.4589 66.6604 87.1411 69.1955 87.7798 71.1068C88.2325 72.5403 88.8663 73.6519 93.3982 75.9254C93.5401 75.985 93.6992 75.99 93.8446 75.9394C93.9901 75.8888 94.1117 75.7862 94.186 75.6513C94.2603 75.5164 94.2821 75.3588 94.2471 75.2088C94.2122 75.0588 94.123 74.9271 93.9967 74.8389Z" fill="#001434"/>
</svg>
